<?xml version="1.0" encoding="UTF-8"?>
<svg id="Layer_2" data-name="Layer 2" xmlns="http://www.w3.org/2000/svg" viewBox="0 0 1920 1080">
  <defs>
    <style>
      .cls-1 {
        fill: none;
      }

      .cls-2 {
        fill: #202939;
      }

      .cls-2, .cls-3 {
        opacity: .9;
      }

      .cls-3 {
        fill: #101729;
      }
    </style>
  </defs>
  <g id="Layer_1-2" data-name="Layer 1">
    <g>
      <path class="cls-2" d="m1920,1080v-548.64c-18.27-9.5-37.01-15.8-56-18.36-109.45-14.77-254.8,90.38-310,210-37.66,81.61-11.5,122.61-65,199-50.24,71.74-134.83,123.43-222,133-76.19,8.37-86.23-22.93-174-31-98.67-9.07-187.22,21.16-255.03,56h1082.03Z"/>
      <rect class="cls-1" width="1919" height="1079"/>
      <path class="cls-3" d="m1920,1080V371.15c-89.28,29.27-180.78,110.52-222,199.85-37.66,81.61-11.5,122.61-65,199-50.24,71.74-134.83,123.43-222,133-76.19,8.37-86.23-22.93-174-31-170.45-15.68-310.71,85.95-366,126-40.63,29.44-77.81,56.38-107.46,82h1156.46Z"/>
      <path class="cls-2" d="m0,0v367.41c45.72,4.82,95.53,8.79,149.7-19.37,70.2-36.5,47.46-74.84,122.28-124.94,117.71-78.81,209.94-7.99,298.78-71.93,45.16-32.5,76.59-90.58,88.98-151.16H0Z"/>
      <path class="cls-2" d="m0,498.21c148.77-95.16,265.95-7.43,378.9-88.71,114.12-82.13,160.26-291,86.52-402.42-1.6-2.42-3.27-4.77-4.97-7.07H0v498.21Z"/>
    </g>
  </g>
</svg>