<?xml version="1.0" encoding="utf-8"?>
<!-- Generator: Adobe Illustrator 27.5.0, SVG Export Plug-In . SVG Version: 6.00 Build 0)  -->
<svg version="1.1" id="Layer_2_00000125563354393194694110000003301343021549387451_"
	 xmlns="http://www.w3.org/2000/svg" xmlns:xlink="http://www.w3.org/1999/xlink" x="0px" y="0px" viewBox="0 0 783.9 800"
	 style="enable-background:new 0 0 783.9 800;" xml:space="preserve">
<style type="text/css">
	.st0{opacity:0.3;fill:#808080;enable-background:new    ;}
	.st1{fill:#C2D4E2;}
	.st2{fill:#F9AB51;}
	.st3{fill:#FFFFFF;}
	.st4{fill:#F78C8B;}
	.st5{opacity:0.2;fill:#808080;enable-background:new    ;}
</style>
<path class="st0" d="M565.5,268.5C400,419.2,208.9,302.7,98.1,441.1C3.9,558.7,65.4,738.4,0,800h783.9V0h-65.2
	C665.2,47.6,676.4,167.7,565.5,268.5z"/>
<g>
	<circle class="st1" cx="418.2" cy="436.3" r="171.7"/>
	<g>
		<g>
			<g>
				<path class="st2" d="M252.7,473.1c0,0-19.9-6.9-30.2,3.8c-10.4,10.7,5,17.5,3.8,27.1"/>
				<path d="M226.3,506.8c-0.1,0-0.2,0-0.4,0c-1.5-0.2-2.6-1.6-2.4-3.1c0.3-2.8-1.4-5.6-3.3-8.6c-3.2-5.1-7.6-12,0.3-20.1
					c11.5-11.9,32.3-4.8,33.2-4.5c1.5,0.5,2.2,2.1,1.7,3.6c-0.5,1.5-2.1,2.2-3.6,1.7l0,0c-0.2-0.1-18.3-6.2-27.3,3.1
					c-4.5,4.7-3,7.8,0.5,13.2c2.2,3.5,4.7,7.5,4.1,12.3C228.9,505.8,227.7,506.8,226.3,506.8L226.3,506.8z"/>
			</g>
			<g>
				<path class="st3" d="M461.5,526.4c106.1-32.5,107.1-79.6,83.7-95c-22.1-14.6-47.9,21-47.9,21l-46.2,18.3"/>
				<path d="M461.5,529.2c-1.2,0-2.3-0.8-2.7-2c-0.5-1.5,0.4-3.1,1.9-3.5c79.6-24.3,92.1-54.2,93.7-65.9c1.4-9.7-2.6-18.7-10.8-24.1
					c-19.6-12.9-43.8,19.9-44,20.2c-0.3,0.4-0.7,0.8-1.2,1l-46.2,18.3c-1.4,0.6-3.1-0.1-3.6-1.6c-0.6-1.4,0.1-3.1,1.6-3.6l45.5-18
					c1.7-2.2,7.6-9.7,15.7-15.9c13.1-10,25.3-11.8,35.5-5.1c10,6.6,15,17.7,13.3,29.6c-1.8,12.2-10.2,24.6-24.5,35.8
					c-16.9,13.3-41.5,24.9-73.1,34.6C462.1,529.2,461.8,529.2,461.5,529.2L461.5,529.2z"/>
			</g>
			<g>
				<path class="st2" d="M404.3,338c0,0-4.1-60.7,31.7-56.7c35.8,4,48.1,62.6,45.7,83.2"/>
				<path d="M481.6,367.3c-0.1,0-0.2,0-0.3,0c-1.5-0.2-2.6-1.6-2.5-3.1c1.5-12.9-3.5-45.6-18.9-65.2c-7-8.8-15.1-13.8-24.2-14.8
					c-6.7-0.8-12.2,0.9-16.6,5.1c-14.2,13.6-12,48.2-12,48.6c0.1,1.5-1.1,2.9-2.6,3c-1.5,0.1-2.9-1.1-3-2.6
					c-0.1-1.5-2.4-37.6,13.7-53c5.6-5.4,12.7-7.6,21.1-6.6c10.7,1.2,20.1,6.9,28,16.9c15.9,20.1,22,53.8,20.1,69.4
					C484.2,366.2,483,367.3,481.6,367.3L481.6,367.3z"/>
			</g>
			<path class="st3" d="M479.5,471c0,0,38.8-13.4,37.5-54.2c-1.3-40.8-22.1-35.5-37.5-54.9s-26.1-38.1-85-21.4
				c-58.9,16.7-94.7,73-87.3,105.8c0,0-28.5,2.7-55.9,24.8c-27.4,22.1-26.8,23.4-24.8,72.3c0,0-0.3,6.4-13.1,16.4
				c-12.7,10-11,27.8,1,35.1c12.1,7.4,26.4-0.3,34.5-5c8-4.7,23.1-1.7,39.8-14.4c16.7-12.7,38.8,13.4,109.1-14.1
				C468.1,534,501.5,505.2,479.5,471L479.5,471z"/>
			<path class="st2" d="M291.9,539.6c6.5-5.8,41.9-3,53.3-10c21.5-13.3-13.2-17.8-33.2-38.7c-16.3-16.9-11.5-36.9-9-43.9
				c-8.9,1.6-30.6,7.1-51.7,24.1c-27.4,22.1-26.8,23.4-24.8,72.3c0,0,0,0.5-0.1,1.4c5,5.4,9.3,2.3,14.1,13.4
				C247.2,573.7,285.4,545.3,291.9,539.6L291.9,539.6z"/>
			<path class="st2" d="M479.5,362c-15.4-19.4-26.1-38.1-85-21.4c-58.9,16.7-94.7,72.9-87.3,105.8c0,0,0.2,34.8,79.1,42.7
				c0,0-40.5-14.9-38.6-42.3s25.8-27.6,41.2-22.2c15.4,5.4,24.6,8.5,32.5,1s10.5-16,23.6-18.5c13.2-2.6,15.7-23.3,3-30.5
				s-33.3-25.2-30.6-30.2s9.8-12.6,27.6-5.7c17.9,6.9,20.2,27.3,28.6,30.5s10.5,6,18.1,6.7c2.5,0.2,5.7,1,8.9,1.6
				C493.9,374.2,486.2,370.4,479.5,362L479.5,362z"/>
			<path d="M225.6,600.7c-4.6,0-8.9-1.2-12.6-3.5c-6.5-4-10.7-10.9-11.1-18.6c-0.5-8.1,3.1-15.8,9.8-21.1
				c10.3-8.2,11.8-13.5,12-14.3l-0.1-2.8c-1.9-46.3-2-49,25.9-71.5c22.9-18.4,46.2-23.6,54.4-25c-2.5-16.9,4.8-38.4,19.9-58.2
				c17.5-23,42.4-40,70-47.9c15.6-4.4,28.4-6.6,39.2-6.6c26.1,0,36,12.6,46.4,26c0.8,1,1.6,2,2.4,3c4.7,5.9,10,9.5,15.2,12.9
				c11.3,7.5,22,14.6,22.9,43.6c0.7,22.2-10,36.5-19.2,44.6c-6.6,5.8-13.2,9.3-17,11c5.6,10,6.9,19.8,3.8,29.4
				c-3.6,11.3-13.1,22-28.9,32.7c-14.5,9.9-34,19.5-59.7,29.5c-23,9-43.6,13.3-62.9,13.3l0,0c-9.2,0-16.9-1-23-1.8
				c-4.5-0.6-8.4-1.1-11.7-1.1c-4.6,0-7.8,1-10.8,3.2c-11.1,8.5-21.4,10.3-29.6,11.7c-4.3,0.8-8,1.4-10.5,2.9
				C243.2,596.4,234.6,600.7,225.6,600.7L225.6,600.7z M432.9,336.9c-10.3,0-22.6,2.1-37.7,6.4c-26.5,7.5-50.3,23.8-67.1,45.9
				c-14.8,19.4-21.8,41.1-18.3,56.6c0.2,0.8,0,1.6-0.5,2.3c-0.5,0.6-1.2,1.1-2,1.1c-0.3,0-28,2.9-54.4,24.2
				c-25.8,20.7-25.7,21.6-23.8,66.9l0.1,3c0,0.1,0,0.2,0,0.3c0,0.8-0.8,7.9-14.1,18.5c-5.3,4.2-8.1,10.1-7.7,16.4
				c0.4,5.8,3.5,11.1,8.4,14.1c2.9,1.8,6.1,2.6,9.7,2.6c7.7,0,15.4-3.9,21.9-7.7c3.4-2,7.5-2.7,12.3-3.5c7.6-1.3,17.1-3,27.2-10.7
				c3.9-3,8.3-4.3,14.2-4.3c3.7,0,7.8,0.5,12.4,1.1c6.3,0.8,13.5,1.7,22.3,1.7c18.6,0,38.5-4.2,60.9-13c51-19.9,78.9-39.1,85.2-58.7
				c2.9-8.9,1.3-17.9-4.9-27.5c-0.5-0.7-0.6-1.6-0.3-2.4c0.3-0.8,0.9-1.5,1.7-1.7c0.1,0,9.4-3.3,18.5-11.4
				c11.9-10.6,17.7-24.1,17.1-40.1c-0.9-26.1-9.5-31.9-20.4-39.1c-5.2-3.5-11.2-7.4-16.5-14.1c-0.8-1-1.6-2-2.4-3
				C464.9,347.9,456.3,336.9,432.9,336.9L432.9,336.9z"/>
			<g>
				<path class="st4" d="M444.6,440.5c0,0,37.2-28,46-27s19.4,28.1,19.4,47.2s-29.5,37.8-47.9,15.4
					C443.6,453.7,449.1,451,444.6,440.5L444.6,440.5z"/>
				<path d="M482.1,489.1c-5.9,0-14.6-2-22.2-11.2c-13.4-16.3-14.6-22.6-15.8-28.8c-0.5-2.4-0.9-4.6-2.1-7.5
					c-0.5-1.2-0.1-2.6,0.9-3.4c6.1-4.6,37.2-27.5,47.1-27.5c0.3,0,0.5,0,0.8,0c11.7,1.4,21.9,32.1,21.9,50
					C512.7,475.3,497.8,489.1,482.1,489.1L482.1,489.1z M448,441.4c0.9,2.5,1.3,4.5,1.7,6.6c1,5.5,2.1,11.1,14.6,26.3
					c4.9,6,11.1,9.2,17.9,9.2c12.6,0,25-11.3,25-22.8c0-20-11-43.7-16.9-44.4c0,0-0.1,0-0.2,0C484,416.3,461.8,431.2,448,441.4
					L448,441.4z"/>
			</g>
			<path d="M468.4,392.5c1.3,7.3,10.8,15.2,19.9,13.6c9.1-1.6,10.8-13.1,9.5-20.4s-9-11.2-17.4-7.5
				C470.4,382.6,467.1,385.2,468.4,392.5L468.4,392.5z"/>
			<g>
				<path class="st3" d="M515.6,418.5c0,0,4.7,19.8-11.7,21.8c-16.4,2-13.4-26.8-13.4-26.8c-2.9,15.4-8.5,29.5-28.1,30.8
					c-21.4,1.5-32.5-17.4-32.5-17.4s43-16.4,60.7-17.2S515.6,418.5,515.6,418.5L515.6,418.5z"/>
				<path d="M460,447.2c-21.1,0-32-18.1-32.5-18.9c-0.8-1.3-0.3-3.1,1-3.9s3.1-0.3,3.8,1l0,0c0.4,0.7,10.5,17.3,29.9,16
					c18-1.2,22.9-14.4,25.5-28.5c0.3-1.5,1.7-2.5,3.2-2.3c1.5,0.2,2.5,1.6,2.4,3.1c-0.5,4.5-0.6,17.1,4.3,21.9
					c1.5,1.5,3.5,2.1,6,1.8c3.3-0.4,5.8-1.8,7.6-4.1c3.7-5,3.4-13.5,2.9-16.3c-0.2-1.5,0.8-3,2.3-3.2c1.5-0.2,3,0.8,3.2,2.3
					c0.1,0.5,1.9,12.7-4,20.6c-2.7,3.6-6.5,5.7-11.4,6.3c-4.2,0.5-7.9-0.6-10.6-3.4c-2.6-2.5-4.1-6.1-5-9.9
					c-4.3,9.2-11.8,16.3-26,17.3C461.7,447.1,460.8,447.2,460,447.2L460,447.2z"/>
			</g>
			<g>
				<path class="st2" d="M312.8,421.3c0,0-25.1-31.9-26.8-73.4s34.6-57.5,83.2,7.2"/>
				<path d="M309,422.2c-0.9,0-1.7-0.4-2.3-1.2c-0.9-1.2-21.8-31.1-23.5-73c-0.8-20,6.7-35.2,19.6-39.8c18.2-6.5,42.7,8.6,67.4,41.5
					c0.9,1.2,0.7,3-0.6,3.9s-3,0.7-3.9-0.6c-12.4-16.5-24.5-28.3-35.8-34.9c-9.5-5.5-18.2-7.1-25.2-4.7
					c-10.5,3.7-16.6,16.9-15.9,34.3c1.6,40.2,22.3,69.7,22.5,70c0.9,1.3,0.6,3-0.7,3.9C310.2,422,309.6,422.2,309,422.2L309,422.2z"
					/>
			</g>
			<g>
				<path class="st4" d="M312.8,401.1c0,0,4.4,13,13.7,0s20.1-28.1,26.4-33.6c6.4-5.5-2-16.6-7.7-22.9s-27.1-32.1-40.2-24.8
					C292.7,326.8,287.4,361.3,312.8,401.1z"/>
				<path d="M318.8,409.7L318.8,409.7c-4.6,0-7.5-4.5-8.5-7.3c-15.3-24.1-21.6-49.8-16.8-69c1.9-7.7,5.5-13.4,10.2-16
					c2-1.1,4.2-1.7,6.5-1.7c13.3,0,29.1,18,35.9,25.6c0.5,0.5,0.9,1,1.2,1.4c7.4,8.3,11,15.1,10.7,20.4c-0.2,2.6-1.3,4.9-3.2,6.5
					c-5.8,5.1-15.9,19.1-24.8,31.4l-1.2,1.7C325.4,407.4,322.2,409.7,318.8,409.7L318.8,409.7z M310.3,321.3c-1.4,0-2.6,0.3-3.8,1
					c-3.3,1.9-6,6.4-7.5,12.5c-1.7,6.7-5.4,31,16.2,64.9c0.1,0.2,0.2,0.4,0.3,0.6c0.4,1.2,1.8,3.9,3.3,3.9l0,0
					c0.5,0,2.4-0.3,5.5-4.6l1.2-1.7c9.5-13.2,19.3-26.9,25.7-32.4c0.8-0.7,1.2-1.6,1.3-2.7c0.1-2.1-0.9-7-9.2-16.3
					c-0.4-0.4-0.8-0.9-1.2-1.4C336.8,339.1,321,321.3,310.3,321.3L310.3,321.3z"/>
			</g>
			<circle cx="409.9" cy="401.8" r="16.8"/>
			<path class="st3" d="M419.5,395.2c0,2.4-1.9,4.3-4.3,4.3s-4.3-1.9-4.3-4.3s1.9-4.3,4.3-4.3S419.5,392.9,419.5,395.2z"/>
			<path d="M483,456.9c-1.4-0.5-2.2-2.1-1.7-3.5c2.2-6.8,0.8-10.6-0.3-13.6c-0.8-2.2-1.6-4.5-0.4-7c0.7-1.4,2.4-1.9,3.8-1.2
				s1.9,2.4,1.2,3.8c-0.1,0.3,0.3,1.6,0.7,2.5c1.2,3.4,3.1,8.6,0.3,17.2C486.1,456.6,484.5,457.4,483,456.9
				C483,456.9,483,456.9,483,456.9L483,456.9z"/>
			<g>
				<path class="st3" d="M408.2,486.3c0,0,15.4-30,41.5-28.5c26.1,1.5,29.9,44-6.1,66.1"/>
				<path d="M443.5,526.7c-1,0-1.9-0.5-2.4-1.3c-0.8-1.3-0.4-3,0.9-3.9c21.3-13.1,27.5-33.1,24.2-46.2c-2.2-8.8-8.3-14.2-16.8-14.7
					c-0.6,0-1.1,0-1.7,0c-23,0-37,26.7-37.1,27c-0.7,1.4-2.4,1.9-3.8,1.2c-1.4-0.7-1.9-2.4-1.2-3.8c0.7-1.3,16.6-31.6,44.2-30
					c10.9,0.6,19.1,7.7,21.9,18.9c3.8,15-3,37.8-26.7,52.4C444.6,526.6,444,526.7,443.5,526.7z"/>
			</g>
			<path class="st4" d="M450.2,496.9c-2.2,4.7-7.5,6.9-11.9,4.8s-6.2-7.5-4.1-12.2s6.6-5,11-3S452.4,492.2,450.2,496.9z"/>
			<path class="st4" d="M438,481.9c-1.1,2.5-3.6,3.8-5.5,3c-1.9-0.9-2.5-3.6-1.3-6.1s3.6-3.8,5.5-3
				C438.5,476.7,439.1,479.4,438,481.9z"/>
			<path class="st4" d="M448.3,479.5c-1.1,2.5-3.6,3.8-5.5,3c-1.9-0.9-2.5-3.6-1.3-6.1s3.6-3.8,5.5-3
				C448.9,474.2,449.5,477,448.3,479.5z"/>
			<path class="st4" d="M456.8,483.4c-1.1,2.5-3.6,3.8-5.5,3c-1.9-0.9-2.5-3.6-1.3-6.1s3.6-3.8,5.5-3
				C457.3,478.1,457.9,480.9,456.8,483.4z"/>
			<path class="st4" d="M460.4,493.5c-1.1,2.5-3.6,3.8-5.5,3c-1.9-0.9-2.5-3.6-1.3-6.1s3.6-3.8,5.5-3
				C461,488.2,461.6,491,460.4,493.5z"/>
			<path class="st4" d="M538.2,469.7c-2.9,4.2-8.6,5.4-12.6,2.7s-4.8-8.5-1.9-12.7s7.4-3.8,11.4-1S541.1,465.4,538.2,469.7
				L538.2,469.7z"/>
			<path class="st4" d="M528.7,452.9c-1.6,2.3-4.2,3.1-6,2c-1.7-1.2-1.8-4-0.3-6.3s4.2-3.1,6-2S530.2,450.6,528.7,452.9z"/>
			<path class="st4" d="M539.3,452.2c-1.6,2.3-4.2,3.1-6,2c-1.7-1.2-1.8-4-0.3-6.3c1.6-2.3,4.2-3.1,6-2
				C540.7,447.2,540.9,450,539.3,452.2z"/>
			<path class="st4" d="M546.9,457.5c-1.6,2.3-4.2,3.1-6,2c-1.7-1.2-1.8-4-0.3-6.3c1.6-2.3,4.2-3.1,6-2
				C548.4,452.5,548.5,455.3,546.9,457.5z"/>
			<path class="st4" d="M548.8,468.1c-1.6,2.3-4.2,3.1-6,2c-1.7-1.2-1.8-4-0.3-6.3c1.6-2.3,4.2-3.1,6-2
				C550.2,463.1,550.3,465.9,548.8,468.1z"/>
			<path d="M309.9,446.5c0,0,0,0.1,0,0.3c0,0.1,0,0.4,0.1,0.8c0,0.4,0.1,0.8,0.2,1.3c0.1,0.5,0.3,1.1,0.4,1.7c0.2,0.6,0.4,1.3,0.7,2
				c0.3,0.7,0.6,1.5,1,2.3c0.4,0.8,0.8,1.6,1.2,2.4c0.5,0.8,0.9,1.6,1.4,2.4l0.8,1.2l0.4,0.6l0.4,0.5c0.6,0.7,1.1,1.5,1.7,2.1
				c0.6,0.7,1.1,1.3,1.7,2c0.6,0.6,1.1,1.1,1.6,1.7c0.2,0.3,0.5,0.5,0.7,0.7c0.2,0.2,0.5,0.4,0.7,0.6c0.4,0.4,0.8,0.7,1.1,1
				c0.6,0.6,1,0.9,1,0.9s-0.4-0.3-1.1-0.7c-0.4-0.2-0.8-0.5-1.3-0.8c-0.2-0.2-0.5-0.3-0.8-0.5c-0.3-0.2-0.5-0.4-0.9-0.6
				c-0.6-0.4-1.2-0.9-1.9-1.4c-0.6-0.5-1.3-1.1-2-1.7c-0.7-0.6-1.4-1.2-2.1-1.9l-0.5-0.5l-0.5-0.5l-1-1.1c-0.7-0.7-1.3-1.5-2-2.2
				c-0.6-0.8-1.2-1.5-1.8-2.3c-0.5-0.8-1.1-1.5-1.5-2.3c-0.5-0.7-0.9-1.5-1.2-2.2c-0.3-0.7-0.7-1.4-0.9-2c-0.3-0.6-0.5-1.1-0.6-1.6
				c-0.1-0.2-0.1-0.5-0.2-0.6c-0.1-0.2-0.1-0.4-0.1-0.5c-0.1-0.3-0.1-0.4-0.1-0.4c-0.4-1.5,0.6-3,2.1-3.4s3,0.6,3.4,2.1
				C309.9,446.1,309.9,446.3,309.9,446.5L309.9,446.5L309.9,446.5z"/>
		</g>
		<g>
			<g>
				<path class="st1" d="M565.5,350.2c-0.2-5.5,3.8-13,10.9-19.1c9.4-8,20.6-10.4,24.9-5.3s0.3,15.8-9.2,23.8
					c-4.9,4.2-10.2,6.8-14.9,7.7c0.5,0.9,0.9,1.7,1.3,2.7c2.9,7.2,2.2,14.3-1.8,15.9s-9.4-3-12.4-10.1
					C561.7,359,562.2,352.3,565.5,350.2L565.5,350.2z"/>
				<path d="M575.2,379c-5,0-10.3-4.9-13.3-12.2c-2.9-7.2-2.5-14.4,0.8-17.9c0.3-6.4,4.8-13.9,11.9-19.9c6.4-5.4,13.8-8.7,19.9-8.7
					c3.8,0,7,1.3,9,3.7c2.8,3.3,3.2,8.1,1.1,13.6c-1.9,4.9-5.6,9.9-10.5,14.1c-4,3.4-8.4,6-12.7,7.4c3.5,8.8,2.1,17.1-3.4,19.3
					C577.1,378.8,576.2,379,575.2,379L575.2,379z M594.5,325.9c-4.7,0-11,2.8-16.2,7.3c-7.1,6.1-10.1,12.8-9.9,16.8
					c0,1-0.4,1.9-1.3,2.5c-1.6,1-2.5,6,0,12.1c2.2,5.4,5.9,8.7,8.1,8.7c0.2,0,0.4,0,0.6-0.1c1.8-0.7,2.8-5.9,0.2-12.2
					c-0.3-0.8-0.7-1.6-1.1-2.4c-0.4-0.8-0.5-1.7-0.1-2.5s1.1-1.4,2-1.6c4.3-0.8,9.3-3.4,13.5-7c4.2-3.6,7.4-7.8,8.9-11.9
					c1.3-3.4,1.3-6.3-0.1-8C598,326.2,596,326,594.5,325.9L594.5,325.9z"/>
			</g>
			<g>
				<path class="st1" d="M544.5,347.7c0.9-0.5,1.8-0.8,2.7-1.2c-2.9-3.7-5.2-9.2-6-15.6c-1.7-12.3,2.2-23,8.9-23.9
					s13.4,8.2,15.2,20.5c1.3,9.2-0.6,17.5-4.5,21.5c1,3.8-3,9.1-9.5,12.3c-7,3.5-14.1,3.2-16-0.6S537.5,351.2,544.5,347.7
					L544.5,347.7z"/>
				<path d="M541.9,366.6c-4.4,0-7.7-1.7-9.1-4.6c-2.6-5.3,1.8-12.5,10.3-16.7c-2.3-3.9-3.9-8.7-4.6-14c-2-14,3-25.9,11.3-27.1
					c0.4-0.1,0.9-0.1,1.3-0.1c7.8,0,15.2,9.9,17,23c1.3,9.2-0.3,17.8-4.3,22.8c0.2,4.9-4.2,10.5-11.2,14
					C549,365.6,545.2,366.6,541.9,366.6L541.9,366.6z M551,309.8c-0.2,0-0.4,0-0.5,0c-4.4,0.6-8.1,9.3-6.5,20.7
					c0.8,5.6,2.8,10.8,5.5,14.3c0.5,0.7,0.7,1.6,0.5,2.5s-0.9,1.6-1.8,1.9c-0.8,0.3-1.7,0.6-2.4,1c-6.2,3-8.8,7.6-8,9.3
					c0.4,0.9,2,1.5,4.1,1.5c2.5,0,5.4-0.8,8.1-2.1c6-3,8.5-7.2,8-9.1c-0.3-1,0-2,0.7-2.7c2.8-2.9,5-9.9,3.7-19.1
					C560.9,317.1,555.3,309.8,551,309.8L551,309.8z"/>
			</g>
			<path d="M558,367.9c-0.4,0-0.8-0.1-1.2-0.2c-2.8-1.1-2.7-4.8-1.8-9.9c0.8-4,2.2-8.9,3.8-12.9c3.4-8.4,6.8-12.6,10.2-12.6
				c0.5,0,1,0.1,1.5,0.3c4.7,1.9,2.4,9.6-0.5,16.9C562.5,367.8,559.3,367.9,558,367.9L558,367.9z M566.9,340.8
				c-0.8,1.4-1.8,3.4-3,6.1c-1.1,2.7-2,5.4-2.6,7.9c1-2.2,2.2-4.7,3.3-7.6C565.8,344.5,566.5,342.4,566.9,340.8L566.9,340.8z"/>
			<path d="M568.3,338.6c-0.1,0-0.1,0-0.2,0c-1.5-0.1-2.7-1.5-2.6-3c0.6-8.7,0.8-18.8,0.4-23.4c-0.4,0-0.8-0.1-1.2-0.4
				c-1.3-0.8-1.8-2.5-1.1-3.8c1.7-2.9,3.6-2.9,4.6-2.5c2.6,0.8,3.7,3.4,3.4,16.9c-0.1,6.8-0.6,13.6-0.6,13.6
				C571,337.5,569.8,338.6,568.3,338.6L568.3,338.6z"/>
			<path d="M569.7,339.2c-0.5,0-1.1-0.1-1.5-0.5c-1.3-0.9-1.7-2.6-0.8-3.9c0.1-0.1,0.3-0.5,0.7-1.1c1.5-2.4,4.9-8.1,8.3-13
				c5.6-8.1,8.5-10.5,11.3-9.5c3.2,1.1,2.7,5.1,2.5,6.7s-1.6,2.6-3.1,2.5c-1-0.1-1.8-0.8-2.2-1.6c-2,2.4-5.7,7.5-12,17.9
				c-0.4,0.7-0.7,1.1-0.8,1.3C571.5,338.8,570.6,339.3,569.7,339.2L569.7,339.2z"/>
		</g>
	</g>
</g>
<path class="st0" d="M69.4,60h157.9c10.8,0,19.6,8.8,19.6,19.6v196.9c0,10.8-8.8,19.5-19.6,19.5H69.4c-10.8,0-19.5-8.8-19.5-19.5
	V79.6C49.9,68.8,58.7,60,69.4,60z"/>
<path class="st5" d="M89.4,83h117.9c10.8,0,19.6,8.8,19.6,19.6v43.9c0,10.8-8.8,19.6-19.6,19.6H89.4c-10.8,0-19.5-8.8-19.5-19.6
	v-43.9C69.9,91.8,78.7,83,89.4,83z"/>
<path class="st5" d="M74.9,182h127.9c2.8,0,5,2.3,5,5v7.5c0,2.8-2.3,5-5,5H74.9c-2.8,0-5-2.3-5-5V187C69.9,184.3,72.2,182,74.9,182z
	"/>
<path class="st5" d="M74.9,216h117.9c2.8,0,5,2.3,5,5v7.5c0,2.8-2.3,5-5,5H74.9c-2.8,0-5-2.3-5-5V221C69.9,218.3,72.2,216,74.9,216z
	"/>
<path class="st5" d="M74.9,250h124.9c2.8,0,5,2.3,5,5v7.4c0,2.8-2.3,5-5,5H74.9c-2.8,0-5-2.3-5-5V255C69.9,252.3,72.2,250,74.9,250z
	"/>
<path class="st0" d="M548.3,608.7h84.2c4.1,0,7.4,3.3,7.4,7.4v103.8c0,4.1-3.3,7.4-7.4,7.4h-84.2c-4.1,0-7.4-3.3-7.4-7.4V616.1
	C540.9,612,544.2,608.7,548.3,608.7z"/>
<path class="st5" d="M556.2,620.3h68.5c2.9,0,5.2,2.3,5.2,5.2v31.3c0,2.9-2.3,5.2-5.2,5.2h-68.5c-2.9,0-5.2-2.3-5.2-5.2v-31.3
	C551,622.6,553.3,620.3,556.2,620.3z"/>
<path class="st5" d="M554,670h63.2c1.7,0,3.1,1.4,3.1,3.1v2.6c0,1.7-1.4,3.1-3.1,3.1H554c-1.7,0-3.1-1.4-3.1-3.1v-2.6
	C551,671.4,552.3,670,554,670z"/>
<path class="st5" d="M554,687h70.8c1.7,0,3.1,1.4,3.1,3.1v2.6c0,1.7-1.4,3.1-3.1,3.1H554c-1.7,0-3.1-1.4-3.1-3.1v-2.6
	C551,688.4,552.3,687,554,687z"/>
<path class="st5" d="M554,704h57.8c1.7,0,3.1,1.4,3.1,3.1v2.6c0,1.7-1.4,3.1-3.1,3.1H554c-1.7,0-3.1-1.4-3.1-3.1v-2.6
	C551,705.4,552.3,704,554,704z"/>
</svg>
