<?xml version="1.0" encoding="UTF-8"?>
<svg id="Layer_2" data-name="Layer 2" xmlns="http://www.w3.org/2000/svg" viewBox="0 0 482.77 231.46">
  <defs>
    <style>
      .cls-1 {
        fill: #faaf5e;
      }

      .cls-2 {
        fill: #f78c8b;
      }

      .cls-3 {
        fill: #fff;
      }

      .cls-4 {
        fill: #7c7c7c;
      }

      .cls-5 {
        opacity: .4;
      }

      .cls-6 {
        opacity: .75;
      }
    </style>
  </defs>
  <g id="Layer_1-2" data-name="Layer 1">
    <g>
      <g>
        <ellipse class="cls-5" cx="281.51" cy="186.77" rx="200.84" ry="44.48" transform="translate(-4.03 6.22) rotate(-1.26)"/>
        <g>
          <g>
            <path class="cls-1" d="M388.42,73.74s18.08-11.95,21.24-18.79c3.16-6.85,20.74,27.8,9.07,40.56"/>
            <path d="M418.78,98c-.62,.02-1.26-.2-1.75-.65-1.02-.93-1.09-2.51-.16-3.53,4.44-4.86,3.43-13.57,2.43-18.32-1.88-8.96-5.91-16.1-8.02-18.33-4.45,7.26-19.68,17.46-21.49,18.65-1.15,.76-2.7,.44-3.46-.71-.76-1.15-.44-2.7,.71-3.46,4.86-3.22,18-12.68,20.34-17.75,.68-1.48,2-2.36,3.46-2.34,4.11,.05,7.88,7.33,9.77,11.67,4.6,10.61,7.35,25.87-.04,33.96-.48,.52-1.13,.8-1.78,.81Z"/>
          </g>
          <path class="cls-1" d="M191.44,84.2S442.89-15.99,437.74,170.24c0,0,21.44,52.93-225.33,33.76l-20.97-119.8Z"/>
          <path class="cls-3" d="M423.7,122.17c5.21,10.72,7.67,25.62,13.9,33.87-1.22-25.74-7.91-45.24-18.38-59.83-1.23,4.64-1.71,13.21,4.48,25.96Z"/>
          <path class="cls-3" d="M392.12,201.75c-33.74-12.16-109.26,3.59-109.26,3.59l-18.63,.49-2.16,1.26c63.26,2.83,103.95-.1,130.05-5.33Z"/>
          <path d="M327.59,210.43c-32.06,.84-70.88-.49-115.38-3.95-1.14-.09-2.07-.94-2.27-2.06l-20.96-119.8c-.2-1.17,.44-2.31,1.54-2.75,.64-.25,64.37-25.38,126.5-27.01,42.66-1.12,74.82,8.87,95.59,29.67,19.3,19.33,28.6,48.05,27.64,85.35,.48,1.68,1.4,6.76-2.53,12.76-7.57,11.56-32.82,25.76-110.12,27.78Zm-113.06-8.78c43.52,3.33,81.5,4.61,112.93,3.78,78.64-2.06,100.12-16.74,105.92-25.31,3.42-5.04,2.08-8.83,2.02-8.98-.11-.3-.18-.65-.17-.97,1-36.09-7.81-63.71-26.17-82.1-19.76-19.79-50.69-29.28-91.92-28.2-55.26,1.45-111.92,21.8-122.88,25.93l20.28,115.86Z"/>
          <g>
            <path class="cls-1" d="M151.37,61.05S119.98-2.89,109.05,14.02c-10.93,16.91-25.92,68.5,.21,98.95l42.11-51.92Z"/>
            <path d="M109.32,115.47s-.02,0-.03,0c-.74,0-1.45-.31-1.93-.87-14.93-17.4-16.18-40.29-14.59-56.42,1.89-19.2,8.48-36.69,14.18-45.51,2.07-3.21,4.67-3.94,6.48-3.99,14.1-.37,35.94,42.64,40.18,51.27,.43,.87,.31,1.92-.3,2.68l-42.11,51.92c-.46,.57-1.15,.91-1.88,.92Zm4.24-101.79c-.57,.02-1.45,.21-2.41,1.7-10.14,15.69-24.42,63.98-1.89,93.62l39.15-48.28c-10.05-20.13-27.03-47.25-34.85-47.04Z"/>
          </g>
          <path class="cls-1" d="M391.75,201.08s84.32,3.48,88.23-17.29c3.91-20.77-34.85-19.98-50.94-41.4"/>
          <path class="cls-3" d="M479.98,183.79c2.99-15.86-18.91-19.15-36.59-29.36-1.67,3.78-2.61,7.03-2.58,7.97,.06,2.33,3.08,15.92-2.27,23.4-2.71,3.78-3.21,9.55-3.04,14.33,21.21-1.78,42.56-6.13,44.48-16.34Z"/>
          <path d="M416.4,203.65c-13.88,.36-24.6-.06-24.75-.07-1.38-.06-2.45-1.22-2.4-2.6,.06-1.38,1.21-2.46,2.6-2.4,31.76,1.31,83.11-1.68,85.67-15.26,1.72-9.15-6.63-13.34-20.41-19.44-10.57-4.68-22.55-9.98-30.08-20-.83-1.1-.61-2.67,.5-3.5,1.1-.83,2.67-.61,3.5,.5,6.74,8.98,18.09,14,28.1,18.43,13.29,5.88,25.84,11.43,23.3,24.94-1.88,10-17.53,16.04-47.84,18.46-6.26,.5-12.49,.78-18.2,.93Z"/>
          <path class="cls-1" d="M271.18,99.35s-31.29-63.39-102.25-52.75c-70.96,10.64-98.82,78.61-42.19,153.86,0,0,71.66,24.34,116.89-11.11,51.15-40.09,27.56-90,27.56-90Z"/>
          <path class="cls-3" d="M126.74,200.46s61.26,20.8,106.25-4.08c-8.45-1.07-21.96-4.22-26.33-13.55-6.52-13.93-11.64-26.85-36.54-26.76-23.77,.09-54.93-42.45,4.77-110.2-1.96,.19-3.94,.42-5.96,.72-8.62,1.29-16.6,3.44-23.88,6.33-8.33,18.14-26.7,59.68-27,73.75,0,0-10.08,3.21-20.68,8.6,2.76,20.12,12.16,42.31,29.37,65.18Z"/>
          <path d="M183.74,211.06s0,0,0,0c-30.81,.81-56.71-7.86-57.8-8.23-.48-.16-.89-.46-1.19-.86-28.7-38.14-37.84-77.92-25.07-109.12,10.64-25.99,35.75-43.75,68.89-48.71,4.52-.68,9.05-1.08,13.44-1.19,32.72-.86,55.84,14.23,69.47,27.03,14.73,13.83,21.66,27.7,21.95,28.28,.27,.57,6.17,13.26,5.66,31.14-.47,16.49-6.73,40.62-33.92,61.93-15.88,12.45-36.55,19.09-61.42,19.74Zm-55.48-12.73c4.39,1.38,28.24,8.44,55.34,7.73,0,0,0,0,0,0,23.78-.62,43.46-6.91,58.47-18.67,20.53-16.09,31.29-35.58,32-57.92,.53-16.74-5.1-28.93-5.16-29.05-.05-.09-6.88-13.72-21-26.93-18.81-17.61-40.94-26.21-65.78-25.56-4.19,.11-8.51,.49-12.83,1.14-31.36,4.7-55.05,21.34-65,45.66-12.02,29.36-3.28,67.09,23.96,103.59Z"/>
          <g>
            <path class="cls-1" d="M219.23,61.15s60.45-37.28,64.64-46.98c4.19-9.7,22.82-8.71,24.84,28.21,2.02,36.92-10.09,83.77-41.2,109.08"/>
            <path d="M267.58,153.96c-.75,.02-1.5-.3-2.01-.92-.87-1.07-.71-2.65,.36-3.52,30.51-24.81,42.21-71.62,40.28-107-1.16-21.26-8.04-29.97-13.58-30.95-2.77-.49-5.31,.92-6.47,3.6-4.38,10.13-59.37,44.25-65.62,48.11-1.18,.72-2.72,.36-3.44-.82-.72-1.18-.36-2.72,.82-3.44,23.11-14.25,60.83-39.3,63.66-45.84,2.08-4.81,6.87-7.44,11.93-6.53,3.73,.67,16.03,5.2,17.69,35.6,1.86,33.96-8.06,83.45-42.12,111.15-.45,.36-.98,.55-1.51,.56Z"/>
          </g>
          <g>
            <path class="cls-2" d="M248.79,81.02s38.01-53.87,44.32-49.74c15.99,10.47-11.98,91.27-26.15,93.92,0,0,4.45-30.97-18.16-44.18Z"/>
            <path d="M267.02,127.7c-.66,.02-1.31-.23-1.8-.69-.58-.56-.86-1.36-.74-2.16,.05-.38,3.88-29.5-16.95-41.67-.6-.35-1.03-.94-1.18-1.63-.15-.68,0-1.4,.4-1.97,.09-.12,8.93-12.63,18.67-25.01,20.36-25.85,24.83-25.97,26.74-26.02,.85-.02,1.65,.2,2.31,.63,7.91,5.18,6.44,21.86,3.82,34.95-4.89,24.46-19.36,61.37-30.89,63.52-.13,.02-.26,.04-.39,.04Zm-14.67-47.38c16.21,11.1,17.73,30.92,17.46,40.21,7.34-7.55,18.68-32.84,23.59-57.37,3.1-15.49,2.59-26.46-1.35-29.56-4.9,1.23-23.91,24.56-39.7,46.72Z"/>
          </g>
          <path d="M176.17,136.17c-1.66,.04-3.25-.14-4.78-.55-6.36-1.71-9.01-6.8-9.12-7.02-.63-1.23-.13-2.74,1.1-3.36,1.22-.62,2.72-.14,3.35,1.08,.09,.17,1.87,3.41,6.06,4.49,4.32,1.12,9.69-.37,15.95-4.43,1.16-.75,2.71-.42,3.46,.74,.75,1.16,.42,2.71-.74,3.46-5.55,3.6-10.67,5.47-15.28,5.6Z"/>
          <path d="M106.01,130.5c-.87,.02-1.79-.05-2.73-.26-3.34-.75-6.14-2.98-8.32-6.64-.71-1.19-.32-2.72,.87-3.43,1.19-.71,2.72-.32,3.43,.87,1.44,2.42,3.14,3.87,5.08,4.31,2.92,.67,5.65-1.08,5.68-1.1,1.15-.75,2.7-.44,3.46,.7,.76,1.14,.46,2.68-.68,3.45-.15,.1-3.01,2-6.78,2.09Z"/>
          <g>
            <path class="cls-2" d="M99.97,185.62s-1.19,24.43,18.29,24.02c19.49-.41,20.04-13.29,21.12-18.56,1.08-5.27-36.18-10.42-39.41-5.46Z"/>
            <path d="M118.56,212.13s0,0,0,0h-.23c-5.72,.13-10.42-1.66-13.97-5.31-7.45-7.66-6.9-20.77-6.87-21.33,.02-.44,.16-.87,.4-1.24,1.31-2.01,4.41-2.98,10.05-3.12,9.07-.24,28.98,2.36,32.99,7.15,.83,.99,1.16,2.16,.92,3.31-.08,.41-.16,.86-.25,1.35-1.07,6.06-3.29,18.68-23.03,19.2Zm-16.09-25.26c.05,3.05,.65,11.53,5.48,16.48,2.58,2.64,5.94,3.88,10.27,3.79h.21c15.66-.41,17.21-9.23,18.24-15.07,.05-.29,.1-.57,.15-.84-2.65-2.12-17.44-5.4-28.76-5.1-3.29,.09-4.88,.48-5.59,.74Z"/>
          </g>
          <g>
            <path class="cls-3" d="M112.2,128.7s-36.92,9.78-29.24,38.56c7.68,28.78,24.96,21.88,28.21,19.44,0,0,31.42,29.12,78.8-8.79"/>
            <path d="M143.65,199.85c-4.23,.11-8.01-.26-11.31-.87-11.03-2.03-18.44-6.94-21.42-9.23-2.89,1.45-8.16,3.02-13.9,1.03-7.59-2.62-13.13-10.32-16.49-22.87-2.12-7.95-1.28-15.3,2.52-21.84,8.29-14.29,27.68-19.57,28.5-19.79,1.33-.35,2.7,.44,3.06,1.78,.35,1.33-.44,2.7-1.77,3.06h0c-.09,.02-8.98,2.44-16.77,8.17-9.98,7.34-13.58,16.54-10.7,27.34,2.86,10.7,7.45,17.42,13.29,19.44,5.23,1.81,10.01-.6,11-1.35,.97-.73,2.31-.66,3.2,.16,.07,.07,7.67,6.93,20.66,9.24,17.21,3.08,36.19-3.2,54.87-18.16,1.08-.86,2.65-.69,3.51,.39,.86,1.08,.69,2.65-.39,3.51-18.86,15.09-35.31,19.66-47.87,19.99Z"/>
          </g>
          <path d="M111.23,189.2c-.81,.02-1.62-.35-2.12-1.07-5.86-8.4-1.51-16.3-1.32-16.64,.68-1.2,2.21-1.62,3.41-.94,1.2,.68,1.62,2.19,.95,3.39-.14,.26-2.94,5.59,1.06,11.32,.79,1.13,.51,2.69-.62,3.48-.42,.29-.89,.44-1.36,.45Z"/>
          <path d="M126.1,161.08c.15,5.63-3.35,18.93-17.71,18.67-8.39-.15-13.47-10.22-13.61-15.85-.15-5.63,2.51-11.27,10.9-11.49s20.28,3.04,20.43,8.67Z"/>
          <path class="cls-1" d="M276.34,153.74s-68.51,23.49-56.83,46.92c11.68,23.43,69.06,4.25,69.06,4.25"/>
          <path class="cls-3" d="M262.47,177.41c1.65-4.64-.42-11.56-2.73-17.05-19.46,8.63-48.13,24.47-40.24,40.29,7.1,14.25,31.11,12.74,48.83,9.36-7.04-15.15-7.87-26.95-5.86-32.61Z"/>
          <path d="M249.3,214.74c-13.64,.36-26.78-2.44-32.03-12.98-2.02-4.06-2.14-8.35-.34-12.74,8.28-20.21,56.54-36.95,58.59-37.66,1.31-.45,2.73,.25,3.18,1.55,.45,1.31-.25,2.73-1.55,3.18-.48,.16-48.17,16.7-55.59,34.82-1.25,3.04-1.19,5.86,.19,8.61,8.79,17.62,50.65,8.13,66.03,2.99,1.31-.44,2.73,.27,3.16,1.58,.44,1.31-.27,2.73-1.58,3.16-1.41,.47-21.23,6.98-40.06,7.47Z"/>
        </g>
      </g>
      <g class="cls-6">
        <path class="cls-4" d="M34.3,109c-.16,0-.3-.06-.41-.17-.11-.11-.17-.26-.17-.43v-1.68c0-.24,.05-.43,.14-.58,.1-.14,.17-.25,.22-.31l8.35-10.8h-7.9c-.18,0-.32-.06-.42-.17-.1-.11-.16-.25-.16-.41v-1.66c0-.18,.05-.32,.16-.43,.1-.11,.24-.17,.42-.17h11.47c.18,0,.32,.06,.43,.17s.17,.26,.17,.43v1.66c0,.19-.03,.35-.1,.48-.06,.13-.14,.25-.22,.36l-8.18,10.85h8.16c.18,0,.32,.06,.43,.17,.11,.11,.17,.26,.17,.43v1.68c0,.16-.06,.3-.17,.41-.11,.11-.26,.17-.43,.17h-11.98Z"/>
      </g>
      <g class="cls-6">
        <path class="cls-4" d="M18.35,74.78c-.24,0-.44-.08-.61-.25-.17-.17-.25-.38-.25-.65v-2.52c0-.36,.07-.65,.22-.86,.14-.22,.25-.37,.32-.47l12.53-16.2h-11.84c-.26,0-.47-.08-.63-.25-.16-.17-.23-.37-.23-.61v-2.48c0-.26,.08-.48,.23-.65,.16-.17,.37-.25,.63-.25h17.21c.26,0,.48,.08,.65,.25,.17,.17,.25,.38,.25,.65v2.48c0,.29-.05,.53-.14,.72s-.2,.37-.32,.54l-12.28,16.27h12.24c.26,0,.48,.08,.65,.25,.17,.17,.25,.38,.25,.65v2.52c0,.24-.08,.44-.25,.61-.17,.17-.38,.25-.65,.25H18.35Z"/>
      </g>
      <g class="cls-6">
        <path class="cls-4" d="M1.2,33.6c-.35,0-.64-.12-.86-.36-.22-.24-.34-.52-.34-.84v-4.03c0-.45,.1-.82,.29-1.1,.19-.29,.34-.5,.43-.62L16.85,6.38H1.63c-.32,0-.59-.11-.82-.34-.22-.22-.34-.5-.34-.82V1.2c0-.35,.11-.64,.34-.86s.5-.34,.82-.34H25.2c.35,0,.65,.11,.89,.34,.24,.22,.36,.51,.36,.86v3.98c0,.35-.06,.66-.19,.94-.13,.27-.27,.5-.43,.7L10.13,27.17h15.65c.35,0,.64,.11,.86,.34,.22,.22,.34,.51,.34,.86v4.03c0,.35-.11,.64-.34,.86s-.51,.34-.86,.34H1.2Z"/>
      </g>
    </g>
  </g>
</svg>