<?xml version="1.0" encoding="utf-8"?>
<!-- Generator: Adobe Illustrator 27.0.1, SVG Export Plug-In . SVG Version: 6.00 Build 0)  -->
<svg version="1.1" id="Layer_2_00000048499718951953069340000017602253792765119635_"
	 xmlns="http://www.w3.org/2000/svg" xmlns:xlink="http://www.w3.org/1999/xlink" x="0px" y="0px" viewBox="0 0 482.8 231.5"
	 style="enable-background:new 0 0 482.8 231.5;" xml:space="preserve">
<style type="text/css">
	.st0{opacity:0.85;}
	.st1{opacity:0.4;enable-background:new    ;}
	.st2{fill:#FAAF5E;}
	.st3{fill:#FFFFFF;}
	.st4{fill:#F78C8B;}
	.st5{opacity:0.75;}
	.st6{fill:#7C7C7C;}
</style>
<g>
	<g class="st0">
		
			<ellipse transform="matrix(0.9998 -2.198938e-02 2.198938e-02 0.9998 -4.0385 6.2356)" class="st1" cx="281.5" cy="186.8" rx="200.8" ry="44.5"/>
		<g>
			<g>
				<path class="st2" d="M388.4,73.7c0,0,18.1-12,21.2-18.8c3.2-6.8,20.7,27.8,9.1,40.6"/>
				<path d="M418.8,98c-0.6,0-1.3-0.2-1.8-0.7c-1-0.9-1.1-2.5-0.2-3.5c4.4-4.9,3.4-13.6,2.4-18.3c-1.9-9-5.9-16.1-8-18.3
					c-4.5,7.3-19.7,17.5-21.5,18.7c-1.1,0.8-2.7,0.4-3.5-0.7c-0.8-1.2-0.4-2.7,0.7-3.5c4.9-3.2,18-12.7,20.3-17.8
					c0.7-1.5,2-2.4,3.5-2.3c4.1,0,7.9,7.3,9.8,11.7c4.6,10.6,7.4,25.9,0,34C420.1,97.7,419.4,98,418.8,98L418.8,98z"/>
			</g>
			<path class="st2" d="M191.4,84.2c0,0,251.5-100.2,246.3,86c0,0,21.4,52.9-225.3,33.8L191.4,84.2L191.4,84.2z"/>
			<path class="st3" d="M423.7,122.2c5.2,10.7,7.7,25.6,13.9,33.9c-1.2-25.7-7.9-45.2-18.4-59.8C418,100.8,417.5,109.4,423.7,122.2z
				"/>
			<path class="st3" d="M392.1,201.8c-33.7-12.2-109.3,3.6-109.3,3.6l-18.6,0.5l-2.2,1.3C325.3,209.9,366,207,392.1,201.8
				L392.1,201.8z"/>
			<path d="M327.6,210.4c-32.1,0.8-70.9-0.5-115.4-3.9c-1.1-0.1-2.1-0.9-2.3-2.1L189,84.6c-0.2-1.2,0.4-2.3,1.5-2.8
				c0.6-0.2,64.4-25.4,126.5-27c42.7-1.1,74.8,8.9,95.6,29.7c19.3,19.3,28.6,48,27.6,85.3c0.5,1.7,1.4,6.8-2.5,12.8
				C430.1,194.2,404.9,208.4,327.6,210.4L327.6,210.4z M214.5,201.6c43.5,3.3,81.5,4.6,112.9,3.8c78.6-2.1,100.1-16.7,105.9-25.3
				c3.4-5,2.1-8.8,2-9c-0.1-0.3-0.2-0.6-0.2-1c1-36.1-7.8-63.7-26.2-82.1c-19.8-19.8-50.7-29.3-91.9-28.2
				c-55.3,1.5-111.9,21.8-122.9,25.9L214.5,201.6L214.5,201.6z"/>
			<g>
				<path class="st2" d="M151.4,61c0,0-31.4-63.9-42.3-47s-25.9,68.5,0.2,98.9C109.3,113,151.4,61.1,151.4,61z"/>
				<path d="M109.3,115.5C109.3,115.5,109.3,115.5,109.3,115.5c-0.8,0-1.5-0.3-2-0.9C92.4,97.2,91.2,74.3,92.8,58.2
					c1.9-19.2,8.5-36.7,14.2-45.5c2.1-3.2,4.7-3.9,6.5-4c14.1-0.4,35.9,42.6,40.2,51.3c0.4,0.9,0.3,1.9-0.3,2.7l-42.1,51.9
					C110.7,115.1,110.1,115.5,109.3,115.5L109.3,115.5z M113.6,13.7c-0.6,0-1.4,0.2-2.4,1.7c-10.1,15.7-24.4,64-1.9,93.6l39.2-48.3
					C138.4,40.6,121.4,13.5,113.6,13.7z"/>
			</g>
			<path class="st2" d="M391.8,201.1c0,0,84.3,3.5,88.2-17.3s-34.9-20-50.9-41.4"/>
			<path class="st3" d="M480,183.8c3-15.9-18.9-19.1-36.6-29.4c-1.7,3.8-2.6,7-2.6,8c0.1,2.3,3.1,15.9-2.3,23.4
				c-2.7,3.8-3.2,9.6-3,14.3C456.7,198.3,478.1,194,480,183.8L480,183.8z"/>
			<path d="M416.4,203.6c-13.9,0.4-24.6-0.1-24.8-0.1c-1.4-0.1-2.5-1.2-2.4-2.6c0.1-1.4,1.2-2.5,2.6-2.4
				c31.8,1.3,83.1-1.7,85.7-15.3c1.7-9.1-6.6-13.3-20.4-19.4c-10.6-4.7-22.5-10-30.1-20c-0.8-1.1-0.6-2.7,0.5-3.5
				c1.1-0.8,2.7-0.6,3.5,0.5c6.7,9,18.1,14,28.1,18.4c13.3,5.9,25.8,11.4,23.3,24.9c-1.9,10-17.5,16-47.8,18.5
				C428.3,203.2,422.1,203.5,416.4,203.6L416.4,203.6z"/>
			<path class="st2" d="M271.2,99.3c0,0-31.3-63.4-102.2-52.8s-98.8,78.6-42.2,153.9c0,0,71.7,24.3,116.9-11.1
				C294.8,149.3,271.2,99.3,271.2,99.3L271.2,99.3z"/>
			<path class="st3" d="M126.7,200.5c0,0,61.3,20.8,106.2-4.1c-8.4-1.1-22-4.2-26.3-13.6c-6.5-13.9-11.6-26.9-36.5-26.8
				c-23.8,0.1-54.9-42.4,4.8-110.2c-2,0.2-3.9,0.4-6,0.7c-8.6,1.3-16.6,3.4-23.9,6.3c-8.3,18.1-26.7,59.7-27,73.8
				c0,0-10.1,3.2-20.7,8.6C100.1,155.4,109.5,177.6,126.7,200.5L126.7,200.5z"/>
			<path d="M183.7,211.1L183.7,211.1c-30.8,0.8-56.7-7.9-57.8-8.2c-0.5-0.2-0.9-0.5-1.2-0.9c-28.7-38.1-37.8-77.9-25.1-109.1
				c10.6-26,35.7-43.8,68.9-48.7c4.5-0.7,9.1-1.1,13.4-1.2c32.7-0.9,55.8,14.2,69.5,27c14.7,13.8,21.7,27.7,22,28.3
				c0.3,0.6,6.2,13.3,5.7,31.1c-0.5,16.5-6.7,40.6-33.9,61.9C229.3,203.8,208.6,210.4,183.7,211.1L183.7,211.1z M128.3,198.3
				c4.4,1.4,28.2,8.4,55.3,7.7l0,0c23.8-0.6,43.5-6.9,58.5-18.7c20.5-16.1,31.3-35.6,32-57.9c0.5-16.7-5.1-28.9-5.2-29.1
				c0-0.1-6.9-13.7-21-26.9c-18.8-17.6-40.9-26.2-65.8-25.6c-4.2,0.1-8.5,0.5-12.8,1.1c-31.4,4.7-55.1,21.3-65,45.7
				C92.3,124.1,101,161.8,128.3,198.3L128.3,198.3z"/>
			<g>
				<path class="st2" d="M219.2,61.2c0,0,60.4-37.3,64.6-47s22.8-8.7,24.8,28.2s-10.1,83.8-41.2,109.1"/>
				<path d="M267.6,154c-0.8,0-1.5-0.3-2-0.9c-0.9-1.1-0.7-2.6,0.4-3.5c30.5-24.8,42.2-71.6,40.3-107c-1.2-21.3-8-30-13.6-31
					c-2.8-0.5-5.3,0.9-6.5,3.6c-4.4,10.1-59.4,44.2-65.6,48.1c-1.2,0.7-2.7,0.4-3.4-0.8s-0.4-2.7,0.8-3.4
					c23.1-14.2,60.8-39.3,63.7-45.8c2.1-4.8,6.9-7.4,11.9-6.5c3.7,0.7,16,5.2,17.7,35.6c1.9,34-8.1,83.4-42.1,111.2
					C268.6,153.8,268.1,154,267.6,154L267.6,154z"/>
			</g>
			<g>
				<path class="st4" d="M248.8,81c0,0,38-53.9,44.3-49.7c16,10.5-12,91.3-26.1,93.9C267,125.2,271.4,94.2,248.8,81L248.8,81z"/>
				<path d="M267,127.7c-0.7,0-1.3-0.2-1.8-0.7c-0.6-0.6-0.9-1.4-0.7-2.2c0-0.4,3.9-29.5-16.9-41.7c-0.6-0.3-1-0.9-1.2-1.6
					c-0.1-0.7,0-1.4,0.4-2c0.1-0.1,8.9-12.6,18.7-25c20.4-25.9,24.8-26,26.7-26c0.9,0,1.6,0.2,2.3,0.6c7.9,5.2,6.4,21.9,3.8,34.9
					c-4.9,24.5-19.4,61.4-30.9,63.5C267.3,127.7,267.1,127.7,267,127.7L267,127.7z M252.3,80.3c16.2,11.1,17.7,30.9,17.5,40.2
					c7.3-7.6,18.7-32.8,23.6-57.4c3.1-15.5,2.6-26.5-1.4-29.6C287.1,34.8,268.1,58.2,252.3,80.3z"/>
			</g>
			<path d="M176.2,136.2c-1.7,0-3.2-0.1-4.8-0.6c-6.4-1.7-9-6.8-9.1-7c-0.6-1.2-0.1-2.7,1.1-3.4c1.2-0.6,2.7-0.1,3.4,1.1
				c0.1,0.2,1.9,3.4,6.1,4.5c4.3,1.1,9.7-0.4,15.9-4.4c1.2-0.8,2.7-0.4,3.5,0.7c0.8,1.2,0.4,2.7-0.7,3.5
				C185.9,134.2,180.8,136.1,176.2,136.2L176.2,136.2z"/>
			<path d="M106,130.5c-0.9,0-1.8-0.1-2.7-0.3c-3.3-0.8-6.1-3-8.3-6.6c-0.7-1.2-0.3-2.7,0.9-3.4s2.7-0.3,3.4,0.9
				c1.4,2.4,3.1,3.9,5.1,4.3c2.9,0.7,5.7-1.1,5.7-1.1c1.2-0.8,2.7-0.4,3.5,0.7s0.5,2.7-0.7,3.5C112.7,128.5,109.8,130.4,106,130.5
				L106,130.5z"/>
			<g>
				<path class="st4" d="M100,185.6c0,0-1.2,24.4,18.3,24c19.5-0.4,20-13.3,21.1-18.6S103.2,180.7,100,185.6z"/>
				<path d="M118.6,212.1L118.6,212.1h-0.2c-5.7,0.1-10.4-1.7-14-5.3c-7.4-7.7-6.9-20.8-6.9-21.3c0-0.4,0.2-0.9,0.4-1.2
					c1.3-2,4.4-3,10.1-3.1c9.1-0.2,29,2.4,33,7.1c0.8,1,1.2,2.2,0.9,3.3c-0.1,0.4-0.2,0.9-0.2,1.4
					C140.5,199,138.3,211.6,118.6,212.1L118.6,212.1z M102.5,186.9c0.1,3.1,0.7,11.5,5.5,16.5c2.6,2.6,5.9,3.9,10.3,3.8h0.2
					c15.7-0.4,17.2-9.2,18.2-15.1c0.1-0.3,0.1-0.6,0.1-0.8c-2.6-2.1-17.4-5.4-28.8-5.1C104.8,186.2,103.2,186.6,102.5,186.9
					L102.5,186.9z"/>
			</g>
			<g>
				<path class="st3" d="M112.2,128.7c0,0-36.9,9.8-29.2,38.6s25,21.9,28.2,19.4c0,0,31.4,29.1,78.8-8.8"/>
				<path d="M143.6,199.9c-4.2,0.1-8-0.3-11.3-0.9c-11-2-18.4-6.9-21.4-9.2c-2.9,1.4-8.2,3-13.9,1c-7.6-2.6-13.1-10.3-16.5-22.9
					c-2.1-7.9-1.3-15.3,2.5-21.8c8.3-14.3,27.7-19.6,28.5-19.8c1.3-0.3,2.7,0.4,3.1,1.8c0.3,1.3-0.4,2.7-1.8,3.1l0,0
					c-0.1,0-9,2.4-16.8,8.2c-10,7.3-13.6,16.5-10.7,27.3c2.9,10.7,7.4,17.4,13.3,19.4c5.2,1.8,10-0.6,11-1.4c1-0.7,2.3-0.7,3.2,0.2
					c0.1,0.1,7.7,6.9,20.7,9.2c17.2,3.1,36.2-3.2,54.9-18.2c1.1-0.9,2.6-0.7,3.5,0.4s0.7,2.6-0.4,3.5
					C172.6,195,156.2,199.5,143.6,199.9L143.6,199.9z"/>
			</g>
			<path d="M111.2,189.2c-0.8,0-1.6-0.4-2.1-1.1c-5.9-8.4-1.5-16.3-1.3-16.6c0.7-1.2,2.2-1.6,3.4-0.9c1.2,0.7,1.6,2.2,0.9,3.4
				c-0.1,0.3-2.9,5.6,1.1,11.3c0.8,1.1,0.5,2.7-0.6,3.5C112.2,189,111.7,189.2,111.2,189.2L111.2,189.2z"/>
			<path d="M126.1,161.1c0.2,5.6-3.3,18.9-17.7,18.7c-8.4-0.1-13.5-10.2-13.6-15.9c-0.2-5.6,2.5-11.3,10.9-11.5
				S126,155.4,126.1,161.1L126.1,161.1z"/>
			<path class="st2" d="M276.3,153.7c0,0-68.5,23.5-56.8,46.9s69.1,4.2,69.1,4.2"/>
			<path class="st3" d="M262.5,177.4c1.6-4.6-0.4-11.6-2.7-17.1c-19.5,8.6-48.1,24.5-40.2,40.3c7.1,14.2,31.1,12.7,48.8,9.4
				C261.3,194.9,260.5,183.1,262.5,177.4L262.5,177.4z"/>
			<path d="M249.3,214.7c-13.6,0.4-26.8-2.4-32-13c-2-4.1-2.1-8.4-0.3-12.7c8.3-20.2,56.5-36.9,58.6-37.7c1.3-0.4,2.7,0.2,3.2,1.6
				c0.5,1.3-0.2,2.7-1.5,3.2c-0.5,0.2-48.2,16.7-55.6,34.8c-1.2,3-1.2,5.9,0.2,8.6c8.8,17.6,50.6,8.1,66,3c1.3-0.4,2.7,0.3,3.2,1.6
				c0.4,1.3-0.3,2.7-1.6,3.2C288,207.7,268.1,214.2,249.3,214.7L249.3,214.7z"/>
		</g>
	</g>
	<g class="st5">
		<path class="st6" d="M34.3,109c-0.2,0-0.3-0.1-0.4-0.2s-0.2-0.3-0.2-0.4v-1.7c0-0.2,0-0.4,0.1-0.6c0.1-0.1,0.2-0.2,0.2-0.3
			L42.4,95h-7.9c-0.2,0-0.3-0.1-0.4-0.2S34,94.6,34,94.4v-1.7c0-0.2,0-0.3,0.2-0.4c0.1-0.1,0.2-0.2,0.4-0.2H46
			c0.2,0,0.3,0.1,0.4,0.2s0.2,0.3,0.2,0.4v1.7c0,0.2,0,0.3-0.1,0.5c-0.1,0.1-0.1,0.2-0.2,0.4l-8.2,10.8h8.2c0.2,0,0.3,0.1,0.4,0.2
			s0.2,0.3,0.2,0.4v1.7c0,0.2-0.1,0.3-0.2,0.4c-0.1,0.1-0.3,0.2-0.4,0.2H34.3L34.3,109z"/>
	</g>
	<g class="st5">
		<path class="st6" d="M18.4,74.8c-0.2,0-0.4-0.1-0.6-0.2s-0.2-0.4-0.2-0.7v-2.5c0-0.4,0.1-0.7,0.2-0.9c0.1-0.2,0.2-0.4,0.3-0.5
			l12.5-16.2H18.7c-0.3,0-0.5-0.1-0.6-0.2s-0.2-0.4-0.2-0.6v-2.5c0-0.3,0.1-0.5,0.2-0.7c0.2-0.2,0.4-0.2,0.6-0.2h17.2
			c0.3,0,0.5,0.1,0.7,0.2c0.2,0.2,0.2,0.4,0.2,0.7V53c0,0.3,0,0.5-0.1,0.7s-0.2,0.4-0.3,0.5L24.1,70.5h12.2c0.3,0,0.5,0.1,0.7,0.2
			c0.2,0.2,0.2,0.4,0.2,0.7v2.5c0,0.2-0.1,0.4-0.2,0.6s-0.4,0.2-0.7,0.2H18.4z"/>
	</g>
	<g class="st5">
		<path class="st6" d="M1.2,33.6c-0.4,0-0.6-0.1-0.9-0.4S0,32.7,0,32.4v-4c0-0.5,0.1-0.8,0.3-1.1c0.2-0.3,0.3-0.5,0.4-0.6L16.9,6.4
			H1.6C1.3,6.4,1,6.3,0.8,6C0.6,5.8,0.5,5.5,0.5,5.2v-4c0-0.4,0.1-0.6,0.3-0.9S1.3,0,1.6,0h23.6c0.4,0,0.6,0.1,0.9,0.3
			c0.2,0.2,0.4,0.5,0.4,0.9v4c0,0.3-0.1,0.7-0.2,0.9c-0.1,0.3-0.3,0.5-0.4,0.7L10.1,27.2h15.6c0.4,0,0.6,0.1,0.9,0.3
			c0.2,0.2,0.3,0.5,0.3,0.9v4c0,0.3-0.1,0.6-0.3,0.9s-0.5,0.3-0.9,0.3C25.8,33.6,1.2,33.6,1.2,33.6z"/>
	</g>
</g>
</svg>
